<?xml version="1.0" encoding="UTF-8"?>
<svg id="Layer_1" xmlns="http://www.w3.org/2000/svg" version="1.1" viewBox="0 0 32 32">
  <!-- Generator: Adobe Illustrator 30.0.0, SVG Export Plug-In . SVG Version: 2.1.1 Build 123)  -->
  <defs>
    <style>
      .st0 {
        fill: #d90b2c;
      }

      .st1 {
        fill: #fff;
      }
    </style>
  </defs>
  <rect class="st0" y="0" width="32" height="32" rx="5.64" ry="5.64"/>
  <g>
    <path class="st1" d="M24.54,16.75c0,1.28-1.04,2.32-2.32,2.32s-2.32-1.04-2.32-2.32,1.04-2.32,2.32-2.32,2.32,1.04,2.32,2.32"/>
    <path class="st1" d="M13.99,8.87c-2.69,0-4.88,2.29-4.88,5.11s2.18,5.11,4.88,5.11,4.88-2.29,4.88-5.11-2.18-5.11-4.88-5.11ZM13.99,16.3c-1.28,0-2.32-1.04-2.32-2.32s1.04-2.32,2.32-2.32,2.32,1.04,2.32,2.32-1.04,2.32-2.32,2.32Z"/>
    <path class="st1" d="M10.67,10.29l-.2-1.37h-2.7v14.27h3.11v-13.12c-.07.07-.15.14-.22.22Z"/>
  </g>
</svg>